<svg width="141" height="45" viewBox="0 0 141 45" fill="none" xmlns="http://www.w3.org/2000/svg">
<path d="M11.5979 37.5C16.2371 37.5 16.2371 36.1082 16.2371 34.4072L11.5979 32.0567L6.95876 34.4072C6.95876 36.1082 6.95876 37.5 11.5979 37.5Z" fill="#3E3807"/>
<path d="M6.95876 33.4175L11.5979 31.1289L16.2371 33.4175C17.0412 33.4175 17.366 31.8557 17.366 31.0052C16.2371 30.3247 17.366 31.0052 16.2371 30.3247L11.5979 27.9124L6.95876 30.3247C5.8299 31.0052 6.95876 30.3247 5.8299 31.0052C5.8299 31.8557 6.10825 33.4175 6.95876 33.4175Z" fill="#3E3807"/>
<path d="M11.5979 7.5C5.19588 7.5 0 12.6959 0 19.0979C0 25.0052 4.1134 28.7165 5.8299 29.7062L11.5979 26.5515L17.366 29.7062C19.0825 28.7165 23.1959 25.0052 23.1959 19.0979C23.1959 12.6959 18 7.5 11.5979 7.5Z" fill="#3E3807"/>
<path d="M41.3553 11.76V33H34.6953V11.76H41.3553ZM53.2133 11.76C55.4333 11.76 57.3733 12.21 59.0333 13.11C60.7133 14.01 62.0033 15.26 62.9033 16.86C63.8033 18.46 64.2533 20.28 64.2533 22.32C64.2533 24.34 63.8033 26.16 62.9033 27.78C62.0033 29.4 60.7133 30.68 59.0333 31.62C57.3733 32.54 55.4333 33 53.2133 33H44.3633V11.76H53.2133ZM52.6133 27.06C54.1133 27.06 55.3033 26.65 56.1833 25.83C57.0633 25.01 57.5033 23.84 57.5033 22.32C57.5033 20.8 57.0633 19.63 56.1833 18.81C55.3033 17.99 54.1133 17.58 52.6133 17.58H51.0233V27.06H52.6133ZM73.3182 17.07V19.68H79.9182V24.69H73.3182V27.69H80.8182V33H66.6582V11.76H80.8182V17.07H73.3182ZM96.9481 29.79H89.8681L88.8181 33H81.8281L89.5981 11.76H97.2781L105.018 33H97.9981L96.9481 29.79ZM95.3281 24.78L93.4081 18.87L91.4881 24.78H95.3281ZM123.211 11.76V17.04H117.571V33H110.911V17.04H105.331V11.76H123.211ZM131.678 17.07V19.68H138.278V24.69H131.678V27.69H139.178V33H125.018V11.76H139.178V17.07H131.678Z" fill="#3E3807"/>
</svg>
