<svg width="23" height="32" viewBox="0 0 23 32" fill="none" xmlns="http://www.w3.org/2000/svg">
<path d="M11.2 3.2C14.288 3.2 19.2 5.44 19.2 11.44C19.2 14.896 16.448 18.912 11.2 23.152C5.952 18.912 3.2 14.88 3.2 11.44C3.2 5.44 8.112 3.2 11.2 3.2ZM11.2 0C5.968 0 0 3.936 0 11.44C0 16.432 3.728 21.696 11.2 27.2C18.672 21.696 22.4 16.432 22.4 11.44C22.4 3.936 16.432 0 11.2 0Z" fill="#FFFACC"/>
<path d="M11.2 8C9.44 8 8 9.44 8 11.2C8 12.96 9.44 14.4 11.2 14.4C12.0487 14.4 12.8626 14.0629 13.4627 13.4627C14.0629 12.8626 14.4 12.0487 14.4 11.2C14.4 10.3513 14.0629 9.53738 13.4627 8.93726C12.8626 8.33714 12.0487 8 11.2 8ZM0 28.8H22.4V32H0V28.8Z" fill="#FFFACC"/>
</svg>
